<svg width="240" height="240" viewBox="0 0 240 240" fill="none" xmlns="http://www.w3.org/2000/svg">
<path d="M210.97 27.74C191.62 9.24999 163 0 125.16 0C87.32 0 54.84 11.6098 32.9 34.8398C10.96 58.0698 0 89.03 0 127.74C0 161.29 9.68 188.38 29.03 209.03C48.38 229.68 76.97 240 114.84 240C152.71 240 184.07 228.19 206.45 204.52C228.81 180.87 240 149.26 240 109.68C240 73.5499 230.32 46.25 210.97 27.74ZM165.03 183.91C164.71 185 163.66 185.97 161.89 186.8C160.12 187.64 158.22 187.76 156.19 187.16C154.16 186.57 151.16 185.14 150.54 182C148.14 169.83 144.21 163.29 137.34 154.9C131.25 147.46 120.92 142.4 110.04 139.05C96.92 135.01 76.38 136.66 62.94 143.6C59.14 144.98 55.4 143.98 53.56 143.07C52.23 142.41 50.37 140.62 49.31 138.84C48.25 137.06 47.9 135.57 48.25 134.38C48.6 133.19 49.11 132.4 49.79 132.04C61.28 124.46 73.19 119.57 85.53 117.37C97.86 115.18 110.01 115.83 121.97 119.34C133.93 122.85 143.99 129.96 152.14 140.65C160.29 151.35 164.77 164.77 165.56 180.93C165.52 181.82 165.35 182.81 165.02 183.91H165.03ZM203.26 160.75C202.8 162.3 201.32 163.67 198.8 164.86C196.28 166.05 193.58 166.22 190.7 165.37C187.82 164.52 186.11 162.26 185.59 158.57C182.7 142.14 175.84 128.15 165.01 116.62C154.18 105.09 141 97.04 125.47 92.48C100.33 85.1 75.57 87.8698 51.21 100.8C49.11 101.95 46.87 102.18 44.5 101.48C42.14 100.79 40.2 99.1699 38.69 96.6399C37.18 94.1099 36.68 91.9898 37.18 90.2898C37.68 88.5898 38.41 87.48 39.36 86.96C55.7 76.18 72.65 69.2199 90.19 66.0999C107.73 62.9799 125.02 63.9099 142.02 68.9099C159.03 73.9099 173.34 84.01 184.93 99.22C196.53 114.43 202.89 133.53 204.01 156.52C203.96 157.79 203.7 159.2 203.25 160.76L203.26 160.75Z" fill="#032433"/>
<path d="M142.02 68.8998C125.01 63.9098 107.73 62.9698 90.19 66.0898C72.64 69.2098 55.7 76.1699 39.36 86.9499C38.4 87.4699 37.67 88.5897 37.18 90.2797C36.68 91.9797 37.18 94.0998 38.69 96.6298C40.2 99.1598 42.14 100.77 44.5 101.47C46.87 102.17 49.1 101.94 51.21 100.79C75.57 87.8597 100.33 85.0899 125.47 92.4699C141 97.0299 154.18 105.08 165.01 116.61C175.84 128.15 182.7 142.13 185.59 158.56C186.11 162.25 187.82 164.52 190.7 165.36C193.58 166.21 196.29 166.04 198.8 164.85C201.31 163.66 202.8 162.29 203.26 160.74C203.72 159.19 203.97 157.78 204.02 156.5C202.9 133.52 196.53 114.42 184.94 99.1999C173.34 83.9899 159.04 73.8798 142.03 68.8898L142.02 68.8998Z" fill="#FFDA00"/>
<path d="M121.98 119.34C110.02 115.83 97.87 115.17 85.54 117.37C73.2 119.57 61.29 124.45 49.8 132.04C49.13 132.41 48.61 133.19 48.26 134.38C47.91 135.58 48.26 137.07 49.32 138.84C50.38 140.62 52.24 142.42 53.57 143.07C55.41 143.98 59.15 144.97 62.95 143.6C76.38 136.66 96.93 135.01 110.05 139.05C120.92 142.4 131.25 147.47 137.35 154.9C144.22 163.29 148.15 169.83 150.55 182C151.17 185.14 154.17 186.56 156.2 187.16C158.23 187.76 160.13 187.64 161.9 186.8C163.67 185.97 164.71 185 165.04 183.91C165.36 182.82 165.54 181.83 165.58 180.93C164.79 164.77 160.32 151.34 152.16 140.65C144.01 129.95 133.95 122.85 121.99 119.34H121.98Z" fill="#FFDA00"/>
</svg>
