<svg width="240" height="240" viewBox="0 0 240 240" fill="none" xmlns="http://www.w3.org/2000/svg">
<path d="M210.97 27.74C191.61 9.25 163 0 125.16 0C87.32 0 54.84 11.61 32.9 34.84C10.96 58.07 0 89.03 0 127.74C0 161.29 9.68 188.38 29.03 209.03C48.38 229.68 76.97 240 114.84 240C152.71 240 184.07 228.19 206.45 204.52C228.81 180.87 240 149.26 240 109.68C240 73.55 230.32 46.25 210.97 27.74ZM68.65 136.73C68.25 139.03 66.94 140.93 64.72 142.42C62.15 144.14 59.72 144.93 57.42 144.79C55.12 144.64 53.1 143.28 51.38 140.72C50.67 139.67 50.03 138.33 49.44 136.69C47.12 130.46 44.75 124.85 42.33 119.87C39.91 114.89 36.82 109.59 33.06 103.99C29.14 98.15 27.49 92.74 28.12 87.75C28.75 82.75 31.22 78.81 35.53 75.91C39.73 73.09 43.68 72.09 47.36 72.91C51.05 73.73 54.19 76.07 56.77 79.92C59.51 84 61.94 90.25 64.04 98.67C66.14 107.08 67.59 115.68 68.41 124.45C68.98 130.33 69.06 134.43 68.66 136.73H68.65ZM132.24 133.32C129.04 139.24 126.52 143.16 124.68 145.08C122.84 147 120.4 147.96 117.36 147.96C113.84 147.96 111.04 147.16 108.96 145.56C106.88 143.96 105.84 141.4 105.84 137.88C105.84 136.44 106.08 134.76 106.56 132.84C108.32 125.48 109.64 118.68 110.52 112.44C111.4 106.2 111.84 99.24 111.84 91.56C111.84 83.88 113.72 77.4 117.48 73.08C121.24 68.76 126.08 66.6 132 66.6C137.92 66.6 142.12 68.16 145.08 71.28C148.04 74.4 149.52 78.6 149.52 83.88C149.52 89.48 147.84 96.92 144.48 106.2C141.12 115.48 137.04 124.52 132.24 133.32ZM192.39 171.76C185 176.26 177.24 180.2 169.13 183.58C163.69 185.87 159.82 187.17 157.5 187.47C155.19 187.77 152.99 187.09 150.91 185.42C148.51 183.49 147.03 181.4 146.49 179.17C145.95 176.93 146.64 174.61 148.57 172.21C149.36 171.23 150.45 170.21 151.83 169.16C157.08 165.1 161.71 161.17 165.74 157.39C169.77 153.61 173.89 149.09 178.11 143.84C182.5 138.37 187.17 135.19 192.11 134.31C197.05 133.42 201.55 134.6 205.59 137.85C209.53 141.01 211.65 144.47 211.96 148.23C212.27 151.99 210.98 155.67 208.08 159.28C205.01 163.11 199.77 167.27 192.38 171.77L192.39 171.76Z" fill="#00A0FF"/>
<path d="M145.08 71.28C142.12 68.16 137.76 66.6 132 66.6C126.24 66.6 121.24 68.76 117.48 73.08C113.72 77.4 111.84 83.56 111.84 91.56C111.84 99.56 111.4 106.2 110.52 112.44C109.64 118.68 108.32 125.48 106.56 132.84C106.08 134.76 105.84 136.44 105.84 137.88C105.84 141.4 106.88 143.96 108.96 145.56C111.04 147.16 113.84 147.96 117.36 147.96C120.4 147.96 122.84 147 124.68 145.08C126.52 143.16 129.04 139.24 132.24 133.32C137.04 124.52 141.12 115.48 144.48 106.2C147.84 96.92 149.52 89.48 149.52 83.88C149.52 78.6 148.04 74.4 145.08 71.28Z" fill="#FFEA00"/>
<path d="M211.97 148.22C211.66 144.46 209.54 141 205.6 137.84C201.55 134.59 197.06 133.41 192.12 134.3C187.18 135.19 182.51 138.36 178.12 143.83C173.9 149.08 169.78 153.6 165.75 157.38C161.72 161.16 157.09 165.09 151.84 169.15C150.46 170.2 149.37 171.22 148.58 172.2C146.65 174.6 145.95 176.93 146.5 179.16C147.04 181.39 148.52 183.48 150.92 185.41C153 187.08 155.19 187.76 157.51 187.46C159.82 187.16 163.7 185.86 169.14 183.57C177.25 180.19 185.01 176.25 192.4 171.75C199.79 167.25 205.03 163.09 208.1 159.26C211 155.65 212.3 151.97 211.98 148.21L211.97 148.22Z" fill="#FFEA00"/>
<path d="M64.0399 98.66C61.9399 90.24 59.5199 83.99 56.7699 79.91C54.1799 76.06 51.0499 73.72 47.3599 72.9C43.6699 72.07 39.7299 73.07 35.5299 75.9C31.2099 78.8 28.7399 82.75 28.1199 87.74C27.4999 92.73 29.1399 98.15 33.0599 103.98C36.8199 109.58 39.9199 114.87 42.3299 119.86C44.7499 124.84 47.1199 130.45 49.4399 136.68C50.0299 138.32 50.6799 139.66 51.3799 140.71C53.0999 143.28 55.1199 144.63 57.4199 144.78C59.7199 144.93 62.1599 144.14 64.7199 142.41C66.9399 140.92 68.2499 139.02 68.6499 136.72C69.0499 134.42 68.9699 130.32 68.3999 124.44C67.5899 115.67 66.1299 107.07 64.0299 98.66H64.0399Z" fill="#FFEA00"/>
</svg>
