<svg width="240" height="240" viewBox="0 0 240 240" fill="none" xmlns="http://www.w3.org/2000/svg">
<path d="M184.43 104.12C172.83 88.91 158.53 78.8 141.52 73.81C124.51 68.82 107.23 67.88 89.69 71C72.14 74.12 55.2 81.08 38.86 91.86C37.9 92.38 37.17 93.5 36.68 95.19C36.18 96.89 36.68 99.01 38.19 101.54C39.7 104.07 41.64 105.68 44 106.38C46.37 107.08 48.6 106.85 50.71 105.7C75.07 92.77 99.83 90 124.97 97.38C140.5 101.94 153.68 109.99 164.51 121.52C175.34 133.06 182.2 147.04 185.09 163.47C185.61 167.16 187.32 169.43 190.2 170.27C193.08 171.12 195.79 170.95 198.3 169.76C200.81 168.57 202.3 167.2 202.76 165.65C203.22 164.1 203.47 162.69 203.52 161.41C202.4 138.43 196.03 119.33 184.44 104.11L184.43 104.12Z" fill="#FFDA00"/>
<path d="M121.48 124.24C109.52 120.73 97.37 120.07 85.04 122.27C72.7 124.47 60.79 129.35 49.3 136.94C48.63 137.31 48.11 138.09 47.76 139.28C47.41 140.48 47.76 141.97 48.82 143.74C49.88 145.52 51.74 147.32 53.07 147.97C54.91 148.88 58.65 149.87 62.45 148.5C75.88 141.56 96.43 139.91 109.55 143.95C120.42 147.3 130.75 152.37 136.85 159.8C143.72 168.19 147.65 174.73 150.05 186.9C150.67 190.04 153.67 191.46 155.7 192.06C157.73 192.66 159.63 192.54 161.4 191.7C163.17 190.87 164.21 189.9 164.54 188.81C164.86 187.72 165.04 186.73 165.08 185.83C164.29 169.67 159.82 156.24 151.66 145.55C143.51 134.85 133.45 127.75 121.49 124.24H121.48Z" fill="#FFDA00"/>
</svg>
